<svg height='100px' width='100px'  fill="#000000" xmlns="http://www.w3.org/2000/svg" data-name="Layer 1" viewBox="0 0 100 100" x="0px" y="0px"><title>84 all</title><path d="M98,3H2V97H98ZM92,9V25.5H8V9ZM8,91V31.5H92V91Z"></path><circle cx="16" cy="17" r="4"></circle><circle cx="26" cy="17" r="4"></circle><circle cx="36" cy="17" r="4"></circle><rect x="13" y="38.5" width="6" height="6"></rect><rect x="23.83" y="38.5" width="14" height="6"></rect><rect x="41.67" y="38.5" width="28" height="6"></rect><rect x="73" y="38.5" width="15" height="6"></rect><rect x="13" y="51.67" width="6" height="6"></rect><rect x="23.83" y="51.67" width="4" height="6"></rect><rect x="31.33" y="51.67" width="24" height="6"></rect><rect x="59" y="51.67" width="29" height="6"></rect><rect x="13" y="64.83" width="6" height="6"></rect><rect x="23.83" y="64.83" width="14" height="6"></rect><rect x="41.67" y="64.83" width="8" height="6"></rect><rect x="53" y="64.83" width="35" height="6"></rect><rect x="13" y="78" width="6" height="6"></rect><rect x="23.83" y="78" width="4" height="6"></rect><rect x="31.33" y="78" width="4" height="6"></rect><rect x="48" y="78" width="12" height="6"></rect><rect x="64" y="78" width="4" height="6"></rect><rect x="70" y="78" width="18" height="6"></rect><rect x="39" y="78" width="5" height="6"></rect></svg>