<svg height='100px' width='100px'  fill="#000000" xmlns="http://www.w3.org/2000/svg" xmlns:xlink="http://www.w3.org/1999/xlink" version="1.1" x="0px" y="0px" viewBox="0 0 100 100" style="enable-background:new 0 0 100 100;" xml:space="preserve"><path d="M58.4,39.1c-5.5,3.8-11,9.5-10.7,16.7c0.2,4.1,2.7,7.2,4,10.9c1.6,4.7-2.7,8.2-5.3,11.6c-0.4,0.5,0.3,1.2,0.7,0.7  c1.7-1.9,4.6-3,6.8-4c3-1.4,5.6-2.5,9-2.2c7.2,0.8,13.7-0.5,20-4.1c5.3-3,11.3-7.1,13.7-13c2.5-6,0.6-14.5-3.4-19.5  C84.3,26.4,67.5,32.9,58.4,39.1z M93.4,59.2c-4.2,5.4-11.1,9.6-17.6,11.6c-3.4,1.1-6.9,1.6-10.4,1.3c-3-0.2-5.4-0.7-8.3,0.4  c-2.1,0.8-4.8,1.8-7.1,3c1.1-1.3,2-2.6,2.6-4.2c1.1-2.9-0.1-5.3-1.4-8c-1.9-4-3.3-7.8-1.9-12.2c1.2-3.6,3.7-6.6,6.6-9  c5-4.2,11.2-7.3,17.5-8.8c6.5-1.6,14.2-1.7,19,3.6C97.4,43,98.3,53,93.4,59.2z"></path><path d="M77,43.6c-3.9-2.8-10.8,1-11.3,5.5c-0.1,0.6,0.9,0.6,1,0c0.3-2.8,4.3-5.5,7-5.6c1.4,0,3.2,0.7,3.9,2c1,1.9-0.4,3.8-1.6,5.3  c-1.3,1.5-3.3,2.9-4.1,4.7c-0.7,1.4-0.5,2.9-0.3,4.4c0.1,0.6,1,0.4,1-0.3c-0.3-2-0.1-3.4,1.3-5c0.6-0.7,1.3-1.3,1.9-2  c1-1.1,2.3-2.4,2.8-3.9C79.3,46.7,78.7,44.8,77,43.6z"></path><path d="M73,62.4c-0.5-0.5-1.2,0.3-0.7,0.7c0.1,0.1,0.1,0.1,0.2,0.2c0.5,0.5,1.2-0.3,0.7-0.7C73.2,62.5,73.1,62.5,73,62.4z"></path><path d="M10.5,45.8c-0.3,0.1-0.5,0.1-0.8,0.2c-0.6,0.2-0.4,1.1,0.3,1c0.3-0.1,0.5-0.1,0.8-0.2C11.4,46.6,11.2,45.6,10.5,45.8z"></path><path d="M6.4,48.7c-0.3,0.2-0.5,0.3-0.8,0.5c-0.5,0.3,0,1.2,0.5,0.9c0.3-0.2,0.5-0.3,0.8-0.5C7.5,49.2,7,48.3,6.4,48.7z"></path><path d="M2.8,54.1c-0.1,0.3-0.3,0.6-0.4,0.9c-0.2,0.6,0.7,0.9,1,0.3c0.1-0.3,0.3-0.6,0.4-0.9C4,53.8,3,53.5,2.8,54.1z"></path><path d="M1.9,59.5c0.2-0.6-0.8-0.9-1-0.3c-0.2,0.7-0.3,1.3-0.2,2c0.1,0.6,1.1,0.6,1,0C1.6,60.6,1.7,60,1.9,59.5z"></path><path d="M2.6,65.2c0-0.6-1-0.6-1,0c0,0.5,0.2,0.9,0.5,1.3c0.4,0.5,1.1-0.2,0.7-0.7C2.7,65.6,2.7,65.4,2.6,65.2z"></path><path d="M6.5,69.4c-0.4,0-0.7-0.2-0.9-0.5c-0.3-0.6-1.2-0.1-0.9,0.5c0.4,0.6,1,1,1.8,1C7.2,70.4,7.2,69.4,6.5,69.4z"></path><path d="M11.6,71.5c-0.6-0.1-1.1-0.3-1.7-0.4c-0.6-0.2-0.9,0.8-0.3,1c0.6,0.1,1.1,0.3,1.7,0.4C11.9,72.7,12.2,71.7,11.6,71.5z"></path><path d="M16.2,71.5c-0.4,0-0.8,0-1.1,0c-0.6,0-0.6,1,0,1c0.4,0,0.8,0,1.1,0C16.8,72.5,16.8,71.5,16.2,71.5z"></path><path d="M20.5,70.2c-0.6,0.1-1.2,0.3-1.7,0.7c-0.5,0.4,0.2,1.1,0.7,0.7c0.3-0.2,0.6-0.4,1-0.4C21.2,71.1,21.2,70.1,20.5,70.2z"></path><path d="M15.2,45.2c0.6,0,0.6-1,0-1c-0.5,0-1,0-1.5,0c-0.6,0-0.6,1,0,1C14.2,45.2,14.7,45.2,15.2,45.2z"></path><path d="M19.8,45.4c0.6,0,0.6-1,0-1c-0.6,0-1.1,0-1.7,0c-0.6,0-0.6,1,0,1C18.6,45.4,19.2,45.4,19.8,45.4z"></path><path d="M23.4,46.1c-0.1,0.1-0.1,0.1-0.1,0c-0.2-0.6-1.2-0.3-1,0.3c0.2,0.6,0.8,0.9,1.4,0.7C24.3,46.8,24,45.9,23.4,46.1z"></path><path d="M26.3,49.3c-0.2-0.5-0.5-0.9-1-1.1c-0.6-0.3-1.1,0.6-0.5,0.9c0.2,0.1,0.4,0.2,0.5,0.5C25.6,50.2,26.5,50,26.3,49.3z"></path><path d="M27.8,53.7c-0.1-0.6-0.2-1.1-0.3-1.7c-0.1-0.6-1.1-0.4-1,0.3c0.1,0.6,0.2,1.1,0.3,1.7C27,54.6,28,54.3,27.8,53.7z"></path><path d="M27.4,58.3c0.2-0.4,0.4-0.9,0.6-1.3c0.3-0.6-0.6-1.1-0.9-0.5c-0.2,0.4-0.4,0.9-0.6,1.3C26.3,58.3,27.2,58.9,27.4,58.3z"></path><path d="M26.5,62c0-0.6-1-0.6-1,0c0,0.3,0,0.5,0,0.8c0,0.6,1,0.6,1,0C26.5,62.5,26.5,62.2,26.5,62z"></path><path d="M27.9,66.2c0.2,0.1,0.4,0.3,0.6,0.4c0.5,0.4,1-0.5,0.5-0.9c-0.2-0.1-0.4-0.3-0.6-0.4C27.8,65,27.3,65.8,27.9,66.2z"></path><path d="M31.5,68.3c-0.3-0.1-0.5-0.1-0.8-0.2c-0.6-0.2-0.9,0.8-0.3,1c0.3,0.1,0.5,0.1,0.8,0.2C31.8,69.4,32.1,68.5,31.5,68.3z"></path><path d="M34.3,69.7c-0.2,0.1-0.3,0.2-0.6,0.1c-0.6-0.1-0.9,0.8-0.3,1c0.5,0.1,0.9,0,1.3-0.2C35.4,70.2,34.9,69.4,34.3,69.7z"></path><path d="M23.4,69.8c-0.1,0-0.1,0-0.2,0c-0.6,0-0.6,1,0,1c0.1,0,0.1,0,0.2,0C24,70.8,24,69.8,23.4,69.8z"></path><path d="M28.7,71c-0.6,0-1.1,0-1.7,0c-0.6,0-0.6,1,0,1c0.6,0,1.1,0,1.7,0C29.3,72,29.3,71,28.7,71z"></path><path d="M32.5,71.3c-0.3,0-0.6,0-0.9,0c-0.6,0-0.6,1,0,1c0.3,0,0.6,0,0.9,0C33.1,72.3,33.1,71.3,32.5,71.3z"></path><path d="M35.2,70.9C35.1,71,35,71.1,35,71.1c-0.5,0.5,0.3,1.2,0.7,0.7c0.1-0.1,0.1-0.1,0.2-0.2C36.3,71.2,35.6,70.5,35.2,70.9z"></path><path d="M18.3,51.9c-1.9-2.9-5.5-1.1-7,1.1c-0.2,0.2,0,0.5,0.2,0.7c0.1,0.1,0.3,0.2,0.4,0.3c0.5,0.3,1-0.5,0.6-0.8  c0.8-1.1,2-2,3.5-1.7c1.9,0.5,2.2,1.9,1,4.1c-0.4,0.5-0.9,0.9-1.5,1.2c-1,0.7-2.3,1.2-3,2.4c-0.9,1.7,0.2,3.5,2.1,3.2  c0.6-0.1,0.4-1.1-0.3-1c-0.8-1.4-0.7-2.4,0.3-2.9c0.2-0.1,0.3-0.2,0.5-0.3c0.5-0.3,1-0.6,1.4-0.9c0.6-0.5,1.2-1,1.6-1.6  C18.9,54.5,19.1,53,18.3,51.9z"></path><path d="M15.8,65.8c0.4-0.4,0.5-1,0-1.3c-0.9-0.6-1.9,0.3-1.8,1.2c0,0.1,0,0.3,0.1,0.4c0,0,0,0,0,0.1c0.1,0.3,0.4,0.3,0.6,0.2  C15.1,66.3,15.5,66.1,15.8,65.8z"></path><path d="M52.7,38c2-6.5-2.1-12.9-8.4-14.8c-7.4-1.8-15.2,1.5-16.6,9.5c-0.7,4.1,0.1,8.5,2.5,11.9c1.1,1.5,2.5,2.8,4.1,3.7  c2.9,1.7,3.8,3.4,4.1,6.7c0,0.4,0.5,0.7,0.9,0.4c1-1.2,1.2-2.4,1.6-3.9c0.9-2.8,3.6-3.3,5.7-4.9C49.3,44.4,51.7,41.4,52.7,38z   M39.1,53.5c-0.2-2-0.8-3.8-2.5-5.1c-2-1.5-4.1-2.3-5.6-4.4c-1.3-1.8-2.1-4-2.4-6.2c-0.6-4.4,0.4-9.5,4.3-12.1  c3.2-2.1,7.4-2.5,11.1-1.6c7.6,2.3,10.3,10.5,6.1,17.1c-1,1.5-2.2,2.9-3.6,4.1c-1.4,1.1-3,1.7-4.5,2.7C40,49.5,40.1,51.6,39.1,53.5z  "></path><path d="M35.2,29.7c-0.5,0.4,0,1.2,0.5,0.9c1.2-0.8,2.6-1.9,4-2.2c1.6-0.3,2.5,0.1,3.6,1.1c0.7,0.7,1.4,1.4,1,2.6  c-0.4,1.1-1.8,2-2.6,2.8c-0.9,0.8-1.7,1.6-2.3,2.6c-0.3,0.6,0.5,1.1,0.9,0.5c1.4-2.4,7-5.1,4.6-8.3C42,25.9,38.5,27.3,35.2,29.7z"></path><path d="M39,42.1c0,0.3,0,0.6,0,0.9c0,0.6,1,0.6,1,0c0-0.3,0-0.6,0-0.9C40,41.4,39,41.4,39,42.1z"></path><path d="M60.6,27.3c-0.7,0.6-1.5,1-2.2,1.7c-0.8,0.9-1.1,1.9-0.7,3c0.2,0.6,1.2,0.3,1-0.3c-0.8-2.2,2.5-3.2,3.5-4.7  c0.7-1,1-2.4,0.4-3.5c-1-2-3.6-2.1-4.6-0.1c-0.3,0.6,0.6,1.1,0.9,0.5c0.7-0.3,1.4-0.5,2.1-0.8c0.8,0.5,1.1,1.1,0.9,1.9  C61.8,26,61.3,26.7,60.6,27.3z"></path><path d="M57.2,35.2c0.1,0.1,0.1,0.1,0.2,0.2c0.5,0.5,1.2-0.3,0.7-0.7c-0.1-0.1-0.1-0.1-0.2-0.2C57.4,34.1,56.7,34.8,57.2,35.2z"></path><path d="M20.7,34.2c-3-1.1,0.3-3.7,0.2-5.5c-0.1-1.1-1.3-1.9-2.3-2.1c-2.7-0.8-5.1,1.1-5.4,3.8c-0.1,0.6,0.9,0.6,1,0  c0.2-1.7,1.7-3.1,3.5-3c1,0.1,2.4,0.7,2.1,2c-0.1,0.6-0.7,1.2-1,1.8c-0.7,1.7-0.1,3.4,1.7,4C21.1,35.4,21.3,34.4,20.7,34.2z"></path><path d="M23.1,38.9c0.3-0.6,0.1-1.2-0.4-1.6c-0.3-0.2-0.8,0.1-0.8,0.4c0,0.2,0,0.3,0,0.5c0,0.2,0.1,0.3,0.2,0.4  C22.2,39.1,22.8,39.4,23.1,38.9z"></path></svg>