<svg height='100px' width='100px'  fill="#000000" xmlns:x="http://ns.adobe.com/Extensibility/1.0/" xmlns:i="http://ns.adobe.com/AdobeIllustrator/10.0/" xmlns:graph="http://ns.adobe.com/Graphs/1.0/" xmlns="http://www.w3.org/2000/svg" xmlns:xlink="http://www.w3.org/1999/xlink" version="1.1" x="0px" y="0px" viewBox="0 0 100 100" style="enable-background:new 0 0 100 100;" xml:space="preserve"><g><g i:extraneous="self"><g><path d="M5273.1,2400.1v-2c0-2.8-5-4-9.7-4s-9.7,1.3-9.7,4v2c0,1.8,0.7,3.6,2,4.9l5,4.9c0.3,0.3,0.4,0.6,0.4,1v6.4     c0,0.4,0.2,0.7,0.6,0.8l2.9,0.9c0.5,0.1,1-0.2,1-0.8v-7.2c0-0.4,0.2-0.7,0.4-1l5.1-5C5272.4,2403.7,5273.1,2401.9,5273.1,2400.1z      M5263.4,2400c-4.8,0-7.4-1.3-7.5-1.8v0c0.1-0.5,2.7-1.8,7.5-1.8c4.8,0,7.3,1.3,7.5,1.8C5270.7,2398.7,5268.2,2400,5263.4,2400z"></path><path d="M5268.4,2410.3c-0.6,0-1,0.4-1,1c0,0.6,0.4,1,1,1h4.3c0.6,0,1-0.4,1-1c0-0.6-0.4-1-1-1H5268.4z"></path><path d="M5272.7,2413.7h-4.3c-0.6,0-1,0.4-1,1c0,0.6,0.4,1,1,1h4.3c0.6,0,1-0.4,1-1C5273.7,2414.1,5273.3,2413.7,5272.7,2413.7z"></path><path d="M5272.7,2417h-4.3c-0.6,0-1,0.4-1,1c0,0.6,0.4,1,1,1h4.3c0.6,0,1-0.4,1-1C5273.7,2417.5,5273.3,2417,5272.7,2417z"></path></g><g><path d="M90.6,5.1H9.4c-3.8,0-6.9,3.1-6.9,6.8v64.2c0,3.8,3.1,6.9,6.9,6.9h7.7c0.3,0,0.6-0.3,0.6-0.6v-7.4c0-0.3-0.3-0.6-0.6-0.6     h-5.5c-0.3,0-0.5-0.2-0.5-0.5V25.3h77.8V74c0,0.3-0.2,0.5-0.5,0.5h-5.5c-0.3,0-0.6,0.3-0.6,0.6v7.4c0,0.3,0.3,0.6,0.6,0.6h7.7     c3.8,0,6.9-3.1,6.9-6.9V12C97.5,8.2,94.4,5.1,90.6,5.1z M13.9,18.1c-1.6,0-2.9-1.3-2.9-2.9c0-1.7,1.3-3,2.9-3c1.6,0,3,1.3,3,3     C16.8,16.8,15.5,18.1,13.9,18.1z M22.8,18.1c-1.6,0-3-1.3-3-2.9c0-1.7,1.4-3,3-3c1.6,0,2.9,1.3,2.9,3     C25.8,16.8,24.5,18.1,22.8,18.1z M31.8,18.1c-1.6,0-2.9-1.3-2.9-2.9c0-1.7,1.3-3,2.9-3c1.7,0,3,1.3,3,3     C34.7,16.8,33.4,18.1,31.8,18.1z"></path><path d="M75.5,68.7l-10.9-5V49.2c0-0.9-0.5-1.8-1.4-2.1L51,41.4c-0.6-0.3-1.3-0.3-2,0L36.8,47c-0.8,0.4-1.4,1.2-1.4,2.1v14.6     l-10.9,5c-0.8,0.4-1.4,1.2-1.4,2.1v16.1c0,0.9,0.5,1.8,1.4,2.1l12.2,5.6c0.3,0.1,0.6,0.2,1,0.2c0.3,0,0.7-0.1,1-0.2L50,89.5     l11.3,5.1c0.3,0.1,0.6,0.2,1,0.2c0.3,0,0.7-0.1,1-0.2L75.5,89c0.8-0.4,1.4-1.2,1.4-2.1V70.8C76.8,69.9,76.3,69.1,75.5,68.7z      M35.4,88.9l-7.5-3.4V74.5l7.5,3.4V88.9z M37.8,73.8l-6.6-3l6.6-3l6.6,3L37.8,73.8z M47.7,85.4l-7.5,3.4V77.9l7.5-3.4V85.4z      M47.7,67.2l-7.5-3.5V52.8l7.5,3.5V67.2z M43.4,49.2l6.6-3l6.6,3l-6.6,3L43.4,49.2z M59.9,52.8v10.9l-7.5,3.5V56.3L59.9,52.8z      M59.9,88.9l-7.5-3.4V74.5l7.5,3.4V88.9z M62.2,73.8l-6.6-3l6.6-3l6.6,3L62.2,73.8z M72.1,85.4l-7.5,3.4V77.9l7.5-3.4V85.4z"></path></g></g></g></svg>