<svg height='100px' width='100px'  fill="#000000" xmlns="http://www.w3.org/2000/svg" xmlns:xlink="http://www.w3.org/1999/xlink" version="1.1" x="0px" y="0px" viewBox="0 0 96.174 264.349" style="enable-background:new 0 0 96.174 264.349;" xml:space="preserve"><g><path d="M8.952,87.432v47.615v18.939v98c0,6.83,5.537,12.363,12.363,12.363c6.828,0,12.365-5.533,12.365-12.363v-90.271h4.635   v90.271c0,6.83,5.537,12.363,12.363,12.363c6.828,0,12.365-5.533,12.365-12.363v-98v-18.939v-33.087   c4.47,9.298,8.452,28.029,6.397,63.166c-0.258,4.411,3.108,8.196,7.519,8.454c0.159,0.009,0.317,0.014,0.475,0.014   c4.205,0,7.73-3.281,7.979-7.533c2.472-42.248-2.813-69.811-15.706-81.925c-5.607-5.269-11.086-6.178-13.903-6.245   c-0.163-0.01-0.324-0.025-0.489-0.025H22.41c-1.133-3.119-2.205-6.475-3.139-9.905c-4.959-4.538-8.074-11.058-8.074-18.293   c0-13.675,11.125-24.8,24.8-24.8c4.263,0,8.277,1.082,11.785,2.984c0.978-4.198-1.548-8.439-5.743-9.546   c-15.979-4.215-27.782-2.088-35.082,6.322c-7.236,8.337-8.836,22.026-4.758,40.685C4.382,75.302,7.596,83.982,8.952,87.432z    M40.251,102.041h16.25v4h-16.25V102.041z"></path><path d="M35.997,27.167c-12.426,0-22.5,10.073-22.5,22.5c0,12.427,10.074,22.5,22.5,22.5c12.428,0,22.5-10.073,22.5-22.5   C58.497,37.24,48.424,27.167,35.997,27.167z M48.856,58.103c-0.399-0.218-9.863-5.199-19.512,6.039l-2.276-1.954   c11.293-13.153,23.126-6.774,23.244-6.708L48.856,58.103z"></path><path d="M64.082,31.828c0.523,0,1.18-0.251,1.972-0.753c0.792-0.502,1.252-1.22,1.379-2.153l0.212-1.315   c0-0.325-0.361-0.721-1.082-1.188s-1.323-0.7-1.803-0.7c-0.735,0-1.421,0.424-2.057,1.272c-0.636,0.848-0.955,1.598-0.955,2.248   C61.748,30.965,62.526,31.828,64.082,31.828z"></path><path d="M67.094,22.07c0.452-0.764,0.692-1.647,0.721-2.651c0.028-1.329,0.339-3.104,0.933-5.324   c0.566-2.135,1.135-4.472,1.708-7.01s0.859-4.005,0.859-4.402c0-0.495-0.258-0.951-0.774-1.368   c-0.516-0.417-1.057-0.625-1.623-0.625c-0.523,0-1.159,0.269-1.909,0.806c-0.749,0.538-1.198,1.319-1.347,2.344   c-0.148,1.026-0.223,1.616-0.223,1.771c0,1.57-0.347,3.932-1.039,7.085c-0.623,2.913-0.82,5.748-0.594,8.506   C64.583,21.781,65.679,22.07,67.094,22.07z"></path><path d="M79.566,33.185c0.848,0,1.764-0.315,2.747-0.944c0.983-0.629,1.474-1.382,1.474-2.259c0-1.117-0.644-1.718-1.93-1.803   c-0.693-0.48-1.265-0.721-1.718-0.721c-0.651,0-1.16,0.148-1.527,0.445c-0.127,0.113-0.297,0.241-0.509,0.382   c-1.132,0.778-1.697,1.492-1.697,2.143c0,0.792,0.304,1.45,0.912,1.973C77.925,32.923,78.675,33.185,79.566,33.185z"></path><path d="M80.563,8.007c1.994,0,3.083-0.629,3.267-1.888c0.07-0.367,0.378-0.742,0.923-1.124c0.544-0.382,1.58-0.573,3.107-0.573   c0.523,0,1.046,0.085,1.57,0.255c0.523,0.17,0.876,0.357,1.061,0.562c0.184,0.205,0.385,0.718,0.604,1.538   c0.219,0.82,0.329,1.471,0.329,1.952c0,0.679-0.17,1.365-0.509,2.057c-0.34,0.693-0.757,1.145-1.252,1.358l-2.864,1.124   c-1.81,0.707-3.037,1.23-3.68,1.57c-0.644,0.339-1.354,0.835-2.132,1.485c-0.863,1.753-1.397,2.916-1.601,3.489   c-0.205,0.573-0.308,1.192-0.308,1.856c0,0.622,0.113,1.22,0.34,1.792c0.226,0.573,0.537,0.859,0.933,0.859   c1.216,0,2.079-0.177,2.588-0.53c0.509-0.354,0.834-0.898,0.976-1.633c0.282-1.386,0.615-2.574,0.997-3.564   c3.549-1.23,5.89-2.11,7.021-2.641c1.131-0.53,2.121-1.464,2.97-2.8s1.273-3.058,1.273-5.165V7.965   c-0.028-1.909-0.254-3.309-0.679-4.2c-0.424-0.891-1.407-1.852-2.948-2.885c-0.933-0.65-2.192-0.94-3.776-0.87   c-0.82,0.028-1.64,0.05-2.46,0.064c-1.174,0.028-2.291,0.368-3.352,1.018h0.021c-1.259,0.679-2.302,1.503-3.129,2.471   c-0.827,0.969-1.241,1.828-1.241,2.577C78.611,7.385,79.262,8.007,80.563,8.007z"></path></g></svg>