<?xml version="1.0" encoding="UTF-8"?>
<svg version="1.1" viewBox="0 0 650 500" xmlns="http://www.w3.org/2000/svg">
 <g transform="rotate(90.113 304.45 246.46)" fill="#007fff">
  <path d="m304.89 37.392c0.9419 0.1846 1.4547 2.7646 1.258 7.1153-0.19775 4.3499-1.1451 10.472-3.2726 17.442-1.7468 5.7174-4.2996 11.985-7.7056 18.194-2.9286 5.3403-6.2017 10.123-9.4854 14.177-3.2848 4.0546-6.5763 7.3845-9.5243 9.9347-2.9488 2.5502-5.5502 4.3269-7.501 5.3334-1.9509 1.0074-3.2472 1.253-3.6828 0.70634-0.43549-0.54567 0.024719-1.8302 1.1458-3.7143 1.1201-1.8853 2.8973-4.3774 5.0582-7.4161 2.161-3.0386 4.7047-6.6271 7.3727-10.698 2.668-4.0694 5.4572-8.6219 8.1545-13.539 3.137-5.7188 5.8017-11.302 8.0103-16.359 2.6969-6.1724 4.7371-11.554 6.3616-15.352 1.6245-3.7976 2.8685-6.0097 3.8105-5.8251z"/>
  <path d="m305.98 39.816c0.92517-0.14926 2.1083 1.9759 3.6392 5.6108 1.5309 3.6337 3.444 8.7784 5.9874 14.687 2.0831 4.841 4.6042 10.192 7.5858 15.684 2.5637 4.7215 5.223 9.1012 7.7712 13.022 2.5482 3.9206 4.9813 7.3821 7.0503 10.314 2.0679 2.9315 3.7687 5.3357 4.8358 7.1485 1.068 1.8118 1.4984 3.0378 1.0635 3.5431-0.43585 0.50514-1.7003 0.2383-3.5944-0.76674-1.894-1.005-4.413-2.7539-7.2601-5.2445-2.847-2.4906-6.0163-5.7277-9.1685-9.65-3.1523-3.9231-6.2808-8.5324-9.0642-13.661-3.2371-5.9628-5.6382-11.958-7.2586-17.411-1.9735-6.648-2.805-12.463-2.9304-16.582-0.12442-4.1189 0.41812-6.5449 1.3431-6.6941z"/>
  <path d="m271.02 110.35c-0.4577-1.0923 0.80151-3.188 3.5687-5.6179 2.7665-2.4276 7.0662-5.1489 12.596-7.155 4.5367-1.6436 9.8967-2.7817 15.738-2.9966 5.0228-0.18559 9.915 0.32591 14.371 1.2885 4.4562 0.9635 8.4762 2.3734 11.813 3.897 3.3376 1.5254 5.9939 3.157 7.7872 4.5779 1.7948 1.4196 2.7288 2.6209 2.6603 3.4049-0.068542 0.78397-1.1285 1.083-2.9547 1.0567-1.8253-0.024506-4.4178-0.36502-7.5754-0.77351-3.1574-0.41002-6.8819-0.8845-10.974-1.1974-4.0917-0.31196-8.5511-0.45834-13.177-0.288-5.38 0.19681-10.391 0.8043-14.806 1.568-5.3894 0.93062-9.8996 2.0655-13.194 2.6738-3.295 0.60901-5.394 0.65321-5.8525-0.43854z"/>
  <path d="m305.77 99.648c-4.6291 3.3261-6.9437 13.304-8.101 134.15-1.1572 120.85-1.7359 186.26 2.3146 210.66 4.0505 24.392 4.0505 2.2174 4.9184-6.6523 0.86798-8.8697 5.4971-341.48 0.86798-338.16z" stroke-width="null"/>
 </g>
</svg>
